<?xml version="1.0" encoding="UTF-8" standalone="no"?>
<!-- Created with Inkscape (http://www.inkscape.org/) -->

<svg
   width="67.73333mm"
   height="67.73333mm"
   viewBox="0 0 67.733331 67.733331"
   version="1.1"
   id="svg272"
   inkscape:version="1.2 (dc2aedaf03, 2022-05-15)"
   sodipodi:docname="logo-fg.svg"
   inkscape:export-filename="logo-fg.png"
   inkscape:export-xdpi="96"
   inkscape:export-ydpi="96"
   xmlns:inkscape="http://www.inkscape.org/namespaces/inkscape"
   xmlns:sodipodi="http://sodipodi.sourceforge.net/DTD/sodipodi-0.dtd"
   xmlns="http://www.w3.org/2000/svg"
   xmlns:svg="http://www.w3.org/2000/svg">
  <sodipodi:namedview
     id="namedview274"
     pagecolor="#ffffff"
     bordercolor="#000000"
     borderopacity="0.25"
     inkscape:showpageshadow="2"
     inkscape:pageopacity="0.0"
     inkscape:pagecheckerboard="true"
     inkscape:deskcolor="#d1d1d1"
     inkscape:document-units="mm"
     showgrid="false"
     inkscape:zoom="3.0752245"
     inkscape:cx="25.364002"
     inkscape:cy="125.51929"
     inkscape:window-width="1920"
     inkscape:window-height="1017"
     inkscape:window-x="-8"
     inkscape:window-y="-8"
     inkscape:window-maximized="1"
     inkscape:current-layer="layer1" />
  <defs
     id="defs269" />
  <g
     inkscape:label="Layer 1"
     inkscape:groupmode="layer"
     id="layer1"
     transform="translate(-7.5479026,-61.819954)">
    <g
       id="g579"
       transform="rotate(90,41.120272,95.686601)">
      <g
         id="g6387">
        <path
           id="path479"
           style="fill:#ffc107;fill-opacity:1;stroke:none;stroke-width:1.28425;stroke-dasharray:none;stroke-opacity:1"
           d="m 37.451504,78.761556 a 16.933261,16.933261 0 0 0 -11.441679,4.951635 16.933261,16.933261 0 0 0 -4.913912,11.17968 h 5.06429 a 11.853283,11.853283 0 0 1 0.08372,-0.843876 11.853283,11.853283 0 0 1 0.201021,-1.075904 11.853283,11.853283 0 0 1 0.30024,-1.053682 11.853283,11.853283 0 0 1 0.395325,-1.02061 11.853283,11.853283 0 0 1 0.487826,-0.979785 11.853283,11.853283 0 0 1 0.576192,-0.931209 11.853283,11.853283 0 0 1 0.660425,-0.873332 11.853283,11.853283 0 0 1 0.736906,-0.809253 11.853283,11.853283 0 0 1 0.809769,-0.737423 11.853283,11.853283 0 0 1 0.873332,-0.659908 11.853283,11.853283 0 0 1 0.930693,-0.576192 11.853283,11.853283 0 0 1 0.980301,-0.488342 11.853283,11.853283 0 0 1 1.02061,-0.395325 11.853283,11.853283 0 0 1 1.053166,-0.299723 11.853283,11.853283 0 0 1 1.07642,-0.201538 11.853283,11.853283 0 0 1 1.090373,-0.100769 11.853283,11.853283 0 0 1 1.094506,0 11.853283,11.853283 0 0 1 1.090373,0.100769 11.853283,11.853283 0 0 1 1.075903,0.201538 11.853283,11.853283 0 0 1 1.053166,0.299723 11.853283,11.853283 0 0 1 1.021126,0.395325 11.853283,11.853283 0 0 1 0.980302,0.488342 11.853283,11.853283 0 0 1 0.930693,0.576192 11.853283,11.853283 0 0 1 0.873332,0.659908 11.853283,11.853283 0 0 1 0.809252,0.737423 l 3.592546,-3.592029 A 16.933261,16.933261 0 0 0 37.451504,78.761556 Z" />
        <path
           id="path427"
           style="fill:#ffc107;fill-opacity:1;stroke:none;stroke-width:0.809217;stroke-dasharray:none;stroke-opacity:1"
           d="m 51.13904,84.886763 -3.587894,3.587895 6.418212,6.418213 h 7.175273 z" />
        <rect
           style="fill:#ffc107;fill-opacity:1;stroke:none;stroke-width:0.41265;stroke-dasharray:none;stroke-opacity:1"
           id="rect8513-6"
           width="6.3939996"
           height="5.0799785"
           x="94.389191"
           y="23.867531"
           transform="rotate(45)" />
      </g>
      <g
         id="g6382"
         style="fill:#ffffff;fill-opacity:1">
        <g
           id="g568">
          <path
             id="path6092-6-2-4"
             style="fill:#ffffff;fill-opacity:1;stroke:none;stroke-width:1.28425;stroke-dasharray:none;stroke-opacity:1"
             d="m 21.099013,96.480371 a 16.933261,16.933261 0 0 0 4.911329,11.180199 16.933261,16.933261 0 0 0 23.946858,0 l -3.592029,-3.59255 a 11.853283,11.853283 0 0 1 -0.808736,0.73794 11.853283,11.853283 0 0 1 -0.874365,0.65991 11.853283,11.853283 0 0 1 -0.930692,0.57619 11.853283,11.853283 0 0 1 -0.979786,0.48783 11.853283,11.853283 0 0 1 -1.021126,0.39532 11.853283,11.853283 0 0 1 -1.053166,0.30024 11.853283,11.853283 0 0 1 -1.075903,0.20102 11.853283,11.853283 0 0 1 -1.089856,0.10077 11.853283,11.853283 0 0 1 -1.09554,0 11.853283,11.853283 0 0 1 -1.089856,-0.10077 11.853283,11.853283 0 0 1 -1.075904,-0.20154 11.853283,11.853283 0 0 1 -1.053165,-0.2992 11.853283,11.853283 0 0 1 -1.021127,-0.39584 11.853283,11.853283 0 0 1 -0.979785,-0.48783 11.853283,11.853283 0 0 1 -0.931209,-0.57619 11.853283,11.853283 0 0 1 -0.873332,-0.65991 11.853283,11.853283 0 0 1 -0.809253,-0.73794 11.853283,11.853283 0 0 1 -0.737939,-0.80873 11.853283,11.853283 0 0 1 -0.659391,-0.87385 11.853283,11.853283 0 0 1 -0.576709,-0.9307 11.853283,11.853283 0 0 1 -0.487826,-0.9803 11.853283,11.853283 0 0 1 -0.395325,-1.020607 11.853283,11.853283 0 0 1 -0.299723,-1.053166 11.853283,11.853283 0 0 1 -0.201538,-1.07642 11.853283,11.853283 0 0 1 -0.07803,-0.843876 z" />
          <path
             id="path6855-0-9-9"
             style="fill:#ffffff;fill-opacity:1;stroke:none;stroke-width:0.816789;stroke-dasharray:none;stroke-opacity:1"
             d="m 53.976076,96.480371 -6.402193,6.401679 3.582727,3.58272 9.984404,-9.984399 z" />
          <rect
             style="fill:#ffffff;fill-opacity:1;stroke:none;stroke-width:0.367812;stroke-dasharray:none;stroke-opacity:1"
             id="rect8513-9-2"
             width="5.0799785"
             height="5.0799785"
             x="106.37863"
             y="35.789013"
             transform="rotate(45)" />
        </g>
      </g>
    </g>
  </g>
</svg>
